<svg xmlns="http://www.w3.org/2000/svg"  viewBox="0 0 100 100" width="100px" height="100px"><path fill="#c7ede6" d="M87.215,56.71C88.35,54.555,89,52.105,89,49.5c0-6.621-4.159-12.257-10.001-14.478 C78.999,35.015,79,35.008,79,35c0-11.598-9.402-21-21-21c-9.784,0-17.981,6.701-20.313,15.757C36.211,29.272,34.638,29,33,29 c-7.692,0-14.023,5.793-14.89,13.252C12.906,43.353,9,47.969,9,53.5C9,59.851,14.149,65,20.5,65c0.177,0,0.352-0.012,0.526-0.022 C21.022,65.153,21,65.324,21,65.5C21,76.822,30.178,86,41.5,86c6.437,0,12.175-2.972,15.934-7.614C59.612,80.611,62.64,82,66,82 c4.65,0,8.674-2.65,10.666-6.518C77.718,75.817,78.837,76,80,76c6.075,0,11-4.925,11-11C91,61.689,89.53,58.727,87.215,56.71z"/><path fill="#fff" d="M73.5,28h-10c-0.276,0-0.5-0.224-0.5-0.5s0.224-0.5,0.5-0.5h10c0.276,0,0.5,0.224,0.5,0.5 S73.777,28,73.5,28z"/><path fill="#fff" d="M76.5,28h-1c-0.276,0-0.5-0.224-0.5-0.5s0.224-0.5,0.5-0.5h1c0.276,0,0.5,0.224,0.5,0.5 S76.777,28,76.5,28z"/><path fill="#fff" d="M81.491,30H72.5c-0.276,0-0.5-0.224-0.5-0.5s0.224-0.5,0.5-0.5h8.991c0.276,0,0.5,0.224,0.5,0.5 S81.767,30,81.491,30z"/><path fill="#fff" d="M70.5,30h-1c-0.276,0-0.5-0.224-0.5-0.5s0.224-0.5,0.5-0.5h1c0.276,0,0.5,0.224,0.5,0.5 S70.777,30,70.5,30z"/><path fill="#fff" d="M67.5,30h-2c-0.276,0-0.5-0.224-0.5-0.5s0.224-0.5,0.5-0.5h2c0.276,0,0.5,0.224,0.5,0.5 S67.777,30,67.5,30z"/><path fill="#fff" d="M73.5,32h-2c-0.276,0-0.5-0.224-0.5-0.5s0.224-0.5,0.5-0.5h2c0.276,0,0.5,0.224,0.5,0.5 S73.776,32,73.5,32z"/><path fill="#fff" d="M76.5,23c-0.177,0-0.823,0-1,0c-0.276,0-0.5,0.224-0.5,0.5c0,0.276,0.224,0.5,0.5,0.5 c0.177,0,0.823,0,1,0c0.276,0,0.5-0.224,0.5-0.5C77,23.224,76.776,23,76.5,23z"/><path fill="#fff" d="M76.5,25c-0.177,0-4.823,0-5,0c-0.276,0-0.5,0.224-0.5,0.5c0,0.276,0.224,0.5,0.5,0.5 c0.177,0,4.823,0,5,0c0.276,0,0.5-0.224,0.5-0.5C77,25.224,76.776,25,76.5,25z"/><path fill="#fff" d="M81.5,27c-0.177,0-2.823,0-3,0c-0.276,0-0.5,0.224-0.5,0.5c0,0.276,0.224,0.5,0.5,0.5 c0.177,0,2.823,0,3,0c0.276,0,0.5-0.224,0.5-0.5C82,27.224,81.776,27,81.5,27z"/><path fill="#fff" d="M33.5,76h-10c-0.276,0-0.5-0.224-0.5-0.5s0.224-0.5,0.5-0.5h10c0.276,0,0.5,0.224,0.5,0.5 S33.776,76,33.5,76z"/><path fill="#fff" d="M37.5,76h-2c-0.276,0-0.5-0.224-0.5-0.5s0.224-0.5,0.5-0.5h2c0.276,0,0.5,0.224,0.5,0.5 S37.776,76,37.5,76z"/><path fill="#fff" d="M42.5,78h-10c-0.276,0-0.5-0.224-0.5-0.5s0.224-0.5,0.5-0.5h10c0.276,0,0.5,0.224,0.5,0.5 S42.777,78,42.5,78z"/><path fill="#fff" d="M30.5,78h-1c-0.276,0-0.5-0.224-0.5-0.5s0.224-0.5,0.5-0.5h1c0.276,0,0.5,0.224,0.5,0.5 S30.776,78,30.5,78z"/><path fill="#fff" d="M27.47,78H25.5c-0.276,0-0.5-0.224-0.5-0.5s0.224-0.5,0.5-0.5h1.97c0.276,0,0.5,0.224,0.5,0.5 S27.746,78,27.47,78z"/><path fill="#fff" d="M36.5,74h-5c-0.276,0-0.5-0.224-0.5-0.5s0.224-0.5,0.5-0.5h5c0.276,0,0.5,0.224,0.5,0.5 S36.777,74,36.5,74z"/><path fill="#fff" d="M33.5,80h-2c-0.276,0-0.5-0.224-0.5-0.5s0.224-0.5,0.5-0.5h2c0.276,0,0.5,0.224,0.5,0.5 S33.776,80,33.5,80z"/><g><path fill="#fdfcef" d="M28.5,40.5V41h3v-0.5c0,0,4.242,0,5.5,0c2.485,0,4.5-2.015,4.5-4.5 c0-2.333-1.782-4.229-4.055-4.455C37.467,31.364,37.5,31.187,37.5,31c0-2.485-2.015-4.5-4.5-4.5c-1.438,0-2.703,0.686-3.527,1.736 C29.333,25.6,27.171,23.5,24.5,23.5c-2.761,0-5,2.239-5,5c0,0.446,0.077,0.87,0.187,1.282C19.045,29.005,18.086,28.5,17,28.5 c-1.781,0-3.234,1.335-3.455,3.055C13.364,31.533,13.187,31.5,13,31.5c-2.485,0-4.5,2.015-4.5,4.5s2.015,4.5,4.5,4.5s9.5,0,9.5,0 H28.5z"/><path fill="#472b29" d="M24.5,23c-3.033,0-5.5,2.467-5.5,5.5c0,0.016,0,0.031,0,0.047C18.398,28.192,17.71,28,17,28 c-1.831,0-3.411,1.261-3.858,3.005C13.095,31.002,13.048,31,13,31c-2.757,0-5,2.243-5,5s2.243,5,5,5h15.5 c0.276,0,0.5-0.224,0.5-0.5S28.776,40,28.5,40H13c-2.206,0-4-1.794-4-4s1.794-4,4-4c0.117,0,0.23,0.017,0.343,0.032l0.141,0.019 c0.021,0.003,0.041,0.004,0.062,0.004c0.246,0,0.462-0.185,0.495-0.437C14.232,30.125,15.504,29,17,29 c0.885,0,1.723,0.401,2.301,1.1c0.098,0.118,0.241,0.182,0.386,0.182c0.078,0,0.156-0.018,0.228-0.056 c0.209-0.107,0.314-0.346,0.254-0.573C20.054,29.218,20,28.852,20,28.5c0-2.481,2.019-4.5,4.5-4.5 c2.381,0,4.347,1.872,4.474,4.263c0.011,0.208,0.15,0.387,0.349,0.45c0.05,0.016,0.101,0.024,0.152,0.024 c0.15,0,0.296-0.069,0.392-0.192C30.638,27.563,31.779,27,33,27c2.206,0,4,1.794,4,4c0,0.117-0.017,0.23-0.032,0.343l-0.019,0.141 c-0.016,0.134,0.022,0.268,0.106,0.373c0.084,0.105,0.207,0.172,0.34,0.185C39.451,32.247,41,33.949,41,36c0,2.206-1.794,4-4,4 h-5.5c-0.276,0-0.5,0.224-0.5,0.5s0.224,0.5,0.5,0.5H37c2.757,0,5-2.243,5-5c0-2.397-1.689-4.413-4.003-4.877 C37.999,31.082,38,31.041,38,31c0-2.757-2.243-5-5-5c-1.176,0-2.293,0.416-3.183,1.164C29.219,24.76,27.055,23,24.5,23L24.5,23z"/><path fill="#472b29" d="M23,30c-1.403,0-2.609,0.999-2.913,2.341C19.72,32.119,19.301,32,18.875,32 c-1.202,0-2.198,0.897-2.353,2.068C16.319,34.022,16.126,34,15.937,34c-1.529,0-2.811,1.2-2.918,2.732 C13.01,36.87,13.114,36.99,13.251,37c0.006,0,0.012,0,0.018,0c0.13,0,0.24-0.101,0.249-0.232c0.089-1.271,1.151-2.268,2.419-2.268 c0.229,0,0.47,0.042,0.738,0.127c0.022,0.007,0.045,0.01,0.067,0.01c0.055,0,0.11-0.02,0.156-0.054 C16.962,34.537,17,34.455,17,34.375c0-1.034,0.841-1.875,1.875-1.875c0.447,0,0.885,0.168,1.231,0.473 c0.047,0.041,0.106,0.063,0.165,0.063c0.032,0,0.063-0.006,0.093-0.019c0.088-0.035,0.148-0.117,0.155-0.212 C20.623,31.512,21.712,30.5,23,30.5c0.208,0,0.425,0.034,0.682,0.107c0.023,0.007,0.047,0.01,0.07,0.01 c0.109,0,0.207-0.073,0.239-0.182c0.038-0.133-0.039-0.271-0.172-0.309C23.517,30.04,23.256,30,23,30L23,30z"/><path fill="#472b29" d="M36.883,31.5c-1.326,0-2.508,0.897-2.874,2.182c-0.038,0.133,0.039,0.271,0.172,0.309 C34.205,33.997,34.228,34,34.25,34c0.109,0,0.209-0.072,0.24-0.182C34.795,32.748,35.779,32,36.883,32 c0.117,0,0.23,0.014,0.342,0.029c0.012,0.002,0.023,0.003,0.035,0.003c0.121,0,0.229-0.092,0.246-0.217 c0.019-0.137-0.077-0.263-0.214-0.281C37.158,31.516,37.022,31.5,36.883,31.5L36.883,31.5z"/></g><g><path fill="#fdfcef" d="M81.5,54.5c0,0,1.567,0,3.5,0s3.5-1.567,3.5-3.5c0-1.781-1.335-3.234-3.055-3.455 C85.473,47.366,85.5,47.187,85.5,47c0-1.933-1.567-3.5-3.5-3.5c-1.032,0-1.95,0.455-2.59,1.165 c-0.384-1.808-1.987-3.165-3.91-3.165c-2.209,0-4,1.791-4,4c0,0.191,0.03,0.374,0.056,0.558C71.128,45.714,70.592,45.5,70,45.5 c-1.228,0-2.245,0.887-2.455,2.055C67.366,47.527,67.187,47.5,67,47.5c-1.933,0-3.5,1.567-3.5,3.5s1.567,3.5,3.5,3.5s7.5,0,7.5,0 V55h7V54.5z"/><path fill="#472b29" d="M83.25,50C83.112,50,83,49.888,83,49.75c0-1.223,0.995-2.218,2.218-2.218 c0.034,0.009,0.737-0.001,1.244,0.136c0.133,0.036,0.212,0.173,0.176,0.306c-0.036,0.134-0.173,0.213-0.306,0.176 c-0.444-0.12-1.1-0.12-1.113-0.118c-0.948,0-1.719,0.771-1.719,1.718C83.5,49.888,83.388,50,83.25,50z"/><circle cx="76.5" cy="54.5" r=".5" fill="#472b29"/><path fill="#472b29" d="M85,55h-3.5c-0.276,0-0.5-0.224-0.5-0.5s0.224-0.5,0.5-0.5H85c1.654,0,3-1.346,3-3 c0-1.496-1.125-2.768-2.618-2.959c-0.134-0.018-0.255-0.088-0.336-0.196s-0.115-0.244-0.094-0.377C84.975,47.314,85,47.16,85,47 c0-1.654-1.346-3-3-3c-0.85,0-1.638,0.355-2.219,1c-0.125,0.139-0.321,0.198-0.5,0.148c-0.182-0.049-0.321-0.195-0.36-0.379 C78.58,43.165,77.141,42,75.5,42c-1.93,0-3.5,1.57-3.5,3.5c0,0.143,0.021,0.28,0.041,0.418c0.029,0.203-0.063,0.438-0.242,0.54 c-0.179,0.102-0.396,0.118-0.556-0.01C70.878,46.155,70.449,46,70,46c-0.966,0-1.792,0.691-1.963,1.644 c-0.048,0.267-0.296,0.446-0.569,0.405C67.314,48.025,67.16,48,67,48c-1.654,0-3,1.346-3,3s1.346,3,3,3h7.5 c0.276,0,0.5,0.224,0.5,0.5S74.776,55,74.5,55H67c-2.206,0-4-1.794-4-4s1.794-4,4-4c0.059,0,0.116,0.002,0.174,0.006 C67.588,45.82,68.711,45,70,45c0.349,0,0.689,0.061,1.011,0.18C71.176,42.847,73.126,41,75.5,41c1.831,0,3.466,1.127,4.153,2.774 C80.333,43.276,81.155,43,82,43c2.206,0,4,1.794,4,4c0,0.048-0.001,0.095-0.004,0.142C87.739,47.59,89,49.169,89,51 C89,53.206,87.206,55,85,55z"/><path fill="#472b29" d="M79.5,54c-0.159,0-0.841,0-1,0c-0.276,0-0.5,0.224-0.5,0.5c0,0.276,0.224,0.5,0.5,0.5 c0.159,0,0.841,0,1,0c0.276,0,0.5-0.224,0.5-0.5C80,54.224,79.776,54,79.5,54z"/></g><g><path fill="#8889b9" d="M51.5,73.3c-1.647,0-3.245-0.332-4.747-0.986L28.38,64.308c-0.417-0.181-0.668-0.55-0.673-0.986 l-0.003-8.883c0.036,0.008,0.075,0.021,0.117,0.04l18.374,8.005c1.679,0.732,3.464,1.103,5.306,1.103s3.627-0.371,5.306-1.103 l18.374-8.005c0.042-0.018,0.081-0.031,0.117-0.04v8.643l-0.004,0.241c-0.004,0.435-0.256,0.804-0.673,0.985l-18.373,8.005 C54.745,72.968,53.147,73.3,51.5,73.3z"/><path fill="#472b29" d="M28.403,55.496l17.511,7.629c1.768,0.771,3.647,1.162,5.586,1.162s3.818-0.391,5.586-1.161 l17.511-7.63v7.561l-0.003,0.257c-0.002,0.162-0.087,0.28-0.253,0.353l-18.374,8.005C54.554,72.288,53.051,72.6,51.5,72.6 s-3.054-0.313-4.467-0.928l-18.374-8.005c-0.166-0.072-0.251-0.191-0.253-0.353l-0.003-0.216V55.496 M75.373,53.729 c-0.136,0-0.294,0.029-0.473,0.107l-18.374,8.005c-1.598,0.697-3.312,1.045-5.026,1.045s-3.428-0.348-5.026-1.045L28.1,53.837 c-0.179-0.078-0.337-0.107-0.473-0.107c-0.413,0-0.624,0.271-0.624,0.271v9.331h0.003c0.008,0.654,0.37,1.305,1.094,1.62 l18.374,8.005C48.072,73.652,49.786,74,51.5,74s3.428-0.348,5.026-1.044L74.9,64.95c0.724-0.315,1.086-0.966,1.094-1.62h0.003V54 C75.997,54,75.786,53.729,75.373,53.729L75.373,53.729z"/></g><g><path fill="#472b29" d="M68.326,64.7c-0.095,0-0.185-0.054-0.227-0.145c-0.059-0.125-0.004-0.274,0.122-0.332l4.47-2.063 c0.123-0.058,0.272-0.003,0.331,0.122s0.004,0.274-0.122,0.332l-4.47,2.063C68.397,64.692,68.361,64.7,68.326,64.7z"/></g><g><path fill="#472b29" d="M51.5,71.249c-1.75,0-3.5-0.376-5.131-1.129c-0.125-0.058-0.18-0.206-0.122-0.332 c0.058-0.126,0.207-0.18,0.332-0.122c3.127,1.443,6.714,1.443,9.843,0l9.068-4.184c0.122-0.058,0.272-0.003,0.331,0.122 s0.004,0.274-0.122,0.332l-9.068,4.184C55.001,70.873,53.25,71.249,51.5,71.249z"/></g><g><path fill="#472b29" d="M43.453,68.75c-0.035,0-0.071-0.007-0.105-0.023l-8.456-3.901c-0.125-0.058-0.18-0.206-0.122-0.332 c0.059-0.125,0.206-0.18,0.332-0.122l8.456,3.901c0.125,0.058,0.18,0.206,0.122,0.332C43.638,68.696,43.547,68.75,43.453,68.75z"/></g><g><path fill="#472b29" d="M32.785,63.828c-0.035,0-0.071-0.007-0.105-0.023l-2.898-1.337c-0.125-0.058-0.18-0.206-0.123-0.332 c0.059-0.125,0.207-0.18,0.332-0.122l2.898,1.337c0.125,0.058,0.18,0.206,0.123,0.332C32.969,63.774,32.879,63.828,32.785,63.828z"/></g><g><path fill="#8889b9" d="M51.5,63.942c-1.648,0-3.246-0.331-4.747-0.985l-18.374-7.996c-0.426-0.185-0.68-0.559-0.679-0.998 c0-0.44,0.255-0.812,0.681-0.997l16.146-6.99c1.471-0.637,3.069-1.068,4.75-1.281l4.533,0.005 c1.593,0.208,3.191,0.639,4.662,1.276l16.146,6.99c0.427,0.185,0.682,0.557,0.682,0.997c0.001,0.44-0.253,0.813-0.679,0.998 l-18.374,7.996C54.746,63.61,53.148,63.942,51.5,63.942z"/><path fill="#472b29" d="M53.721,45.4c1.584,0.209,3.089,0.618,4.474,1.218l16.146,6.99c0.214,0.093,0.26,0.245,0.26,0.355 c0,0.111-0.045,0.262-0.259,0.355l-18.374,7.997c-1.413,0.615-2.916,0.926-4.468,0.926s-3.055-0.312-4.468-0.926l-18.374-7.997 c-0.214-0.093-0.259-0.245-0.259-0.355c0-0.111,0.045-0.263,0.26-0.355l16.145-6.99c1.385-0.6,2.89-1.009,4.474-1.218H53.721 M53.811,44h-4.622c-1.689,0.214-3.355,0.647-4.94,1.333l-16.146,6.99c-1.47,0.636-1.472,2.64-0.003,3.279l18.374,7.997 c1.597,0.695,3.312,1.042,5.026,1.042s3.429-0.348,5.026-1.042L74.9,55.603c1.468-0.639,1.466-2.643-0.003-3.279l-16.146-6.99 C57.166,44.647,55.5,44.214,53.811,44L53.811,44z"/></g><g><path fill="#472b29" d="M57,60.099c-0.096,0-0.187-0.055-0.229-0.148c-0.056-0.126,0.001-0.274,0.127-0.33l4-1.782 c0.127-0.056,0.272,0,0.33,0.127c0.056,0.126-0.001,0.274-0.127,0.33l-4,1.782C57.068,60.092,57.034,60.099,57,60.099z M63.196,57.338c-0.096,0-0.187-0.055-0.229-0.148c-0.056-0.126,0.001-0.274,0.127-0.33l6.868-3.061l0.101-0.301l-0.102,0.229 l-2.035-0.902c-0.126-0.056-0.183-0.204-0.127-0.33c0.056-0.127,0.204-0.183,0.33-0.127l2.035,0.902 c0.197,0.088,0.32,0.277,0.32,0.494c0,0.216-0.122,0.405-0.319,0.493l-6.868,3.061C63.265,57.33,63.23,57.338,63.196,57.338z M66.511,52.172c-0.034,0-0.068-0.007-0.102-0.021l-3.783-1.677c-0.126-0.056-0.183-0.204-0.127-0.33 c0.056-0.127,0.203-0.183,0.33-0.127l3.783,1.677c0.126,0.056,0.183,0.204,0.127,0.33C66.698,52.116,66.606,52.172,66.511,52.172z M61.161,49.8c-0.034,0-0.068-0.007-0.102-0.021l-2.348-1.041c-0.126-0.056-0.183-0.204-0.127-0.33 c0.056-0.127,0.204-0.183,0.33-0.127l2.348,1.041c0.126,0.056,0.183,0.204,0.127,0.33C61.349,49.745,61.257,49.8,61.161,49.8z"/></g><g><ellipse cx="37.25" cy="54" fill="#f4989e" rx="2.75" ry="1.5"/><path fill="#472b29" d="M37.25,56C35.397,56,34,55.14,34,54s1.397-2,3.25-2s3.25,0.86,3.25,2S39.103,56,37.25,56z M37.25,53 C35.876,53,35,53.592,35,54s0.876,1,2.25,1s2.25-0.592,2.25-1S38.624,53,37.25,53z"/></g><g><path fill="#edf7f5" d="M51.5,56.3c-1.544,0-2.8-1.256-2.8-2.8V38.2h5.6v15.3C54.3,55.044,53.044,56.3,51.5,56.3z"/><path fill="#472b29" d="M53.6,38.9v14.6c0,1.158-0.942,2.1-2.1,2.1s-2.1-0.942-2.1-2.1V38.9H53.6 M55,37.5h-7v16 c0,1.933,1.567,3.5,3.5,3.5s3.5-1.567,3.5-3.5V37.5L55,37.5z"/></g><g><circle cx="51.5" cy="34.5" r="6.8" fill="#ee3e54"/><path fill="#472b29" d="M51.5,28.4c3.364,0,6.1,2.736,6.1,6.1s-2.736,6.1-6.1,6.1s-6.1-2.736-6.1-6.1 S48.136,28.4,51.5,28.4 M51.5,27c-4.142,0-7.5,3.358-7.5,7.5s3.358,7.5,7.5,7.5s7.5-3.358,7.5-7.5S55.642,27,51.5,27L51.5,27z"/></g><g><path fill="#472b29" d="M54.359,37.547c-0.063,0-0.126-0.024-0.175-0.071c-0.099-0.097-0.101-0.255-0.004-0.354 c0.689-0.704,1.069-1.635,1.069-2.622c0-0.845-0.274-1.643-0.793-2.306c-0.085-0.109-0.065-0.266,0.043-0.351 s0.265-0.066,0.352,0.043c0.588,0.752,0.898,1.656,0.898,2.614c0,1.118-0.431,2.174-1.212,2.972 C54.489,37.522,54.424,37.547,54.359,37.547z"/></g><g><path fill="#472b29" d="M49.607,31.225c-0.089,0-0.175-0.048-0.22-0.131c-0.065-0.122-0.02-0.273,0.102-0.339 c1.048-0.564,2.338-0.657,3.454-0.254c0.13,0.047,0.197,0.19,0.15,0.32c-0.047,0.13-0.188,0.197-0.32,0.15 c-0.984-0.355-2.123-0.273-3.047,0.224C49.688,31.216,49.647,31.225,49.607,31.225z"/></g></svg>